<svg xmlns="http://www.w3.org/2000/svg" width="186" height="29" viewBox="0 0 186 29">
    <g fill="none" fill-rule="evenodd">
        <path fill="#F2BD16" d="M98.906 22.86h12.498V10.925H98.906z"/>
        <path fill="#0A85C0" d="M.388 10.925h3.034v1.623c1.086-1.26 2.378-1.891 3.878-1.891.797 0 1.488.157 2.074.47.586.313 1.067.787 1.441 1.421.547-.634 1.137-1.108 1.77-1.42a4.504 4.504 0 0 1 2.027-.471c.914 0 1.687.177 2.32.531a3.309 3.309 0 0 1 1.417 1.561c.227.508.34 1.328.34 2.461v7.598h-3.293v-6.791c0-1.18-.113-1.94-.339-2.283-.305-.448-.773-.672-1.406-.672-.46 0-.895.134-1.3.403-.407.269-.7.662-.88 1.18-.18.52-.269 1.337-.269 2.457v5.706H7.91v-6.512c0-1.156-.06-1.902-.176-2.238-.117-.335-.299-.585-.545-.75-.246-.164-.58-.246-1.002-.246-.508 0-.965.13-1.37.392-.406.261-.697.638-.873 1.13-.176.492-.264 1.309-.264 2.45v5.774H.388V10.925zM28.836 17.102c-.422.134-1.09.294-2.004.48-.914.187-1.511.37-1.792.549-.43.291-.644.66-.644 1.108 0 .44.171.82.514 1.141.344.32.782.481 1.313.481.593 0 1.16-.187 1.699-.56.398-.283.66-.63.785-1.04.086-.268.129-.78.129-1.533v-.626zM24.43 14.55l-2.988-.515c.335-1.149.913-2 1.734-2.55.82-.553 2.038-.83 3.655-.83 1.469 0 2.562.167 3.281.499.719.332 1.225.753 1.517 1.264.293.512.44 1.45.44 2.814l-.035 3.67c0 1.044.052 1.815.157 2.31.106.497.303 1.028.592 1.595h-3.257c-.086-.209-.191-.519-.316-.929a5.374 5.374 0 0 0-.117-.369 5.964 5.964 0 0 1-1.805 1.175 5.376 5.376 0 0 1-2.05.391c-1.28 0-2.29-.331-3.029-.996-.738-.663-1.107-1.502-1.107-2.517 0-.671.167-1.27.504-1.795a3.246 3.246 0 0 1 1.411-1.209c.606-.28 1.479-.524 2.62-.733 1.538-.275 2.604-.533 3.198-.772v-.313c0-.604-.156-1.035-.469-1.292-.312-.258-.902-.387-1.769-.387-.586 0-1.043.11-1.371.33-.328.221-.594.607-.796 1.159zM35.315 22.808h3.293V10.925h-3.293v11.883zm0-13.494h3.293V6.405h-3.293v2.91zM53.3 22.808h-3.293v-6.064c0-1.283-.07-2.113-.21-2.49a1.749 1.749 0 0 0-.686-.878c-.316-.21-.697-.313-1.141-.313-.57 0-1.083.149-1.535.447a2.27 2.27 0 0 0-.932 1.186c-.168.492-.252 1.402-.252 2.73v5.382h-3.292V10.926h3.058v1.744c1.085-1.342 2.452-2.013 4.1-2.013.727 0 1.39.125 1.992.374.602.25 1.056.57 1.365.957.308.388.524.828.645 1.32.12.493.181 1.198.181 2.116v7.384zM62.346 10.925v2.507h-2.25v4.788c0 .97.021 1.535.064 1.696a.69.69 0 0 0 .293.397.962.962 0 0 0 .557.157c.304 0 .746-.1 1.324-.302l.281 2.439c-.765.313-1.633.47-2.6.47-.594 0-1.13-.095-1.606-.286-.477-.19-.826-.436-1.049-.738-.223-.302-.376-.71-.462-1.225-.071-.366-.106-1.105-.106-2.216v-5.18H55.28v-2.507h1.512v-2.36h3.304v2.36h2.25zM72.024 15.849c-.024-.91-.27-1.602-.738-2.076a2.317 2.317 0 0 0-1.711-.71c-.719 0-1.312.25-1.78.75-.47.5-.7 1.178-.693 2.036h4.922zm-.187 3.177l3.28.526c-.422 1.149-1.088 2.023-1.998 2.624-.91.6-2.048.9-3.416.9-2.163 0-3.764-.675-4.803-2.025-.82-1.081-1.23-2.446-1.23-4.095 0-1.97.538-3.51 1.617-4.627 1.078-1.114 2.44-1.672 4.089-1.672 1.851 0 3.311.584 4.381 1.75 1.071 1.168 1.582 2.957 1.535 5.366h-8.248c.023.932.29 1.658.797 2.176.508.519 1.14.778 1.898.778.515 0 .949-.134 1.3-.403.351-.269.617-.701.798-1.298zM89.294 22.808h-3.293v-6.064c0-1.283-.07-2.113-.21-2.49a1.749 1.749 0 0 0-.686-.878c-.316-.21-.697-.313-1.142-.313-.57 0-1.082.149-1.535.447a2.265 2.265 0 0 0-.931 1.186c-.168.492-.252 1.402-.252 2.73v5.382h-3.292V10.926h3.057v1.744c1.086-1.342 2.453-2.013 4.102-2.013.726 0 1.39.125 1.99.374.603.25 1.057.57 1.366.957.308.388.524.828.644 1.32.121.493.182 1.198.182 2.116v7.384zM92.633 22.808h3.293V10.925h-3.293v11.883zm0-13.494h3.293V6.405h-3.293v2.91z"/>
        <path fill="#FFF" d="M98.718 22.808l4.487-6.12-4.3-5.762h4.02l2.202 3.267 2.32-3.267h3.866l-4.218 5.627 4.606 6.255h-4.043l-2.531-3.68-2.554 3.68z"/>
        <path fill="#0A85C0" d="M115.762 13.262v-2.291h.76l.435 1.578.44-1.578h.758v2.291h-.462v-1.827l-.519 1.827h-.44l-.515-1.827v1.827h-.457zm-1.496 0v-1.893h-.742v-.398h1.948v.398h-.72v1.893h-.486z"/>
        <text fill="#767676" font-family=".SFNSDisplay, .SF NS Display" font-size="20.402" letter-spacing=".018">
            <tspan x="124.667" y="20.685">Moc</tspan>
        </text>
    </g>
</svg>
