<?xml version="1.0" encoding="UTF-8"?>
<svg width="159px" height="18px" viewBox="0 0 159 18" version="1.1" xmlns="http://www.w3.org/2000/svg" xmlns:xlink="http://www.w3.org/1999/xlink">
    <!-- Generator: Sketch 47.1 (45422) - http://www.bohemiancoding.com/sketch -->
    <title>Logo Maintenix</title>
    <desc>Created with Sketch.</desc>
    <defs></defs>
    <g id="Page-3" stroke="none" stroke-width="1" fill="none" fill-rule="evenodd">
        <g id="4-MOC---Operaciones---AOG-/-CONTINGENCY-Copy-2" transform="translate(-54.000000, -16.000000)">
            <g id="NavBar-App-Copy" transform="translate(-1.000000, 0.000000)">
                <g id="Group-7" transform="translate(17.000000, 11.000000)">
                    <g id="Logo-Maintenix" transform="translate(33.133428, 0.000000)">
                        <g id="Group-2" transform="translate(4.021505, 2.896552)">
                            <g id="Group" transform="translate(0.586470, 2.340771)">
                                <polygon id="X-Maintenix" fill="#F2BD16" points="100.273538 16.4158484 112.943731 16.4158484 112.943731 4.79561274 100.273538 4.79561274"></polygon>
                                <path d="M0.393057466,4.79561274 L3.46967505,4.79561274 L3.46967505,6.37541403 C4.57033084,5.14780697 5.88052239,4.53400344 7.40104041,4.53400344 C8.20913683,4.53400344 8.90969791,4.68691082 9.50351436,4.99200088 C10.0973308,5.29636627 10.5851933,5.75798711 10.9647298,6.37541403 C11.5190112,5.75798711 12.1175719,5.29636627 12.7588304,4.99200088 C13.4000889,4.68691082 14.0848359,4.53400344 14.8138623,4.53400344 C15.7405638,4.53400344 16.5241485,4.70647716 17.165407,5.0514246 C17.8066655,5.39637204 18.2858303,5.902923 18.6029014,6.5710775 C18.8329954,7.06530891 18.9476471,7.86390571 18.9476471,8.96759258 L18.9476471,16.3643962 L15.6093075,16.3643962 L15.6093075,9.75242047 C15.6093075,8.60452815 15.4946558,7.86390571 15.2653525,7.52982846 C14.9561884,7.09429609 14.4809771,6.87616756 13.8397186,6.87616756 C13.3724143,6.87616756 12.9327846,7.00660987 12.5208294,7.26821917 C12.1088741,7.52982846 11.8123613,7.91318392 11.6297093,8.41756084 C11.4478481,8.92266245 11.3569175,9.71908521 11.3569175,10.8090032 L11.3569175,16.3643962 L8.01936859,16.3643962 L8.01936859,10.0241753 C8.01936859,8.89874803 7.95927531,8.17261917 7.84067016,7.84578872 C7.72206501,7.51895827 7.53783168,7.27546596 7.28876087,7.11603647 C7.03889935,6.95588231 6.70047933,6.87616756 6.27271009,6.87616756 C5.75796374,6.87616756 5.29461295,7.00298647 4.88344843,7.25734898 C4.47149321,7.51171148 4.17656174,7.8783993 3.99865402,8.35813712 C3.81995559,8.83715027 3.73060638,9.63212367 3.73060638,10.743782 L3.73060638,16.3643962 L0.393057466,16.3643962 L0.393057466,4.79561274 Z" id="Fill-21" fill="#0A85C0"></path>
                                <path d="M29.2343508,10.8089307 C28.8065815,10.9400977 28.1297415,11.0959038 27.2030399,11.2770737 C26.2763383,11.4589682 25.6706614,11.6372394 25.386009,11.8111624 C24.9503328,12.0945121 24.73289,12.4539531 24.73289,12.8894855 C24.73289,13.3177711 24.9068442,13.688807 25.2547527,14.0011439 C25.6034518,14.312756 26.0470351,14.4692868 26.5855024,14.4692868 C27.1872259,14.4692868 27.7612748,14.2873923 28.3076492,13.9243278 C28.7116974,13.648225 28.977373,13.311249 29.1038851,12.9112259 C29.1908622,12.6503413 29.2343508,12.1524865 29.2343508,11.4191108 L29.2343508,10.8089307 Z M24.7684715,8.32545408 L21.739296,7.82397587 C22.0792975,6.70579541 22.6652069,5.87748675 23.4970243,5.34049925 C24.3280511,4.80278707 25.5639167,4.53393097 27.2030399,4.53393097 C28.6919299,4.53393097 29.8004927,4.6955345 30.529519,5.01874155 C31.2577546,5.34194861 31.7709196,5.7521172 32.0674325,6.24997201 C32.3639453,6.74782682 32.5125971,7.66092298 32.5125971,8.98998517 L32.4778063,12.5626551 C32.4778063,13.5793804 32.5307832,14.3294237 32.6375279,14.8120602 C32.7442725,15.2954214 32.9443199,15.8128426 33.2376699,16.3650484 L29.9357026,16.3650484 C29.8479348,16.1614134 29.7411901,15.8599468 29.614678,15.4606484 C29.5593289,15.2787538 29.5197938,15.1591817 29.4960728,15.1012073 C28.9251867,15.6099323 28.3155562,15.9903891 27.6663907,16.2447516 C27.0172252,16.4991141 26.3237804,16.625933 25.5876378,16.625933 C24.2893067,16.625933 23.2653489,16.3034506 22.5173458,15.6563118 C21.768552,15.0106224 21.3945504,14.1931839 21.3945504,13.2054458 C21.3945504,12.5517849 21.5645511,11.9691426 21.9053432,11.4575188 C22.2461354,10.9451704 22.7229281,10.5531188 23.336512,10.2806394 C23.950096,10.0081599 24.8356811,9.77046499 25.991686,9.56683005 C27.5517391,9.29869864 28.6326273,9.04795953 29.2343508,8.81533742 L29.2343508,8.51024735 C29.2343508,7.92253228 29.0762106,7.50294286 28.7591395,7.25220375 C28.4428591,7.00146465 27.8450891,6.87609509 26.9658296,6.87609509 C26.3712225,6.87609509 25.9086624,6.98334766 25.5757773,7.19785279 C25.2436828,7.41235792 24.9740538,7.7877419 24.7684715,8.32545408 L24.7684715,8.32545408 Z" id="Fill-22" fill="#0A85C0"></path>
                                <path d="M35.8037319,16.3643962 L39.1412808,16.3643962 L39.1412808,4.79561274 L35.8037319,4.79561274 L35.8037319,16.3643962 Z M35.8037319,3.22668164 L39.1412808,3.22668164 L39.1412808,0.394634181 L35.8037319,0.394634181 L35.8037319,3.22668164 Z" id="Fill-23" fill="#0A85C0"></path>
                                <path d="M54.0371387,16.364686 L50.6987991,16.364686 L50.6987991,10.4607222 C50.6987991,9.21137476 50.627636,8.40335713 50.4853099,8.0366693 C50.3429837,7.6692568 50.1113083,7.38445776 49.7902837,7.1815475 C49.4700498,6.97791256 49.083397,6.87645743 48.6326974,6.87645743 C48.054695,6.87645743 47.5352044,7.02139333 47.0765979,7.31198981 C46.6172006,7.60258629 46.3025016,7.9873911 46.1317102,8.46712892 C45.9617095,8.94614207 45.8763137,9.8317004 45.8763137,11.1252533 L45.8763137,16.364686 L42.5387648,16.364686 L42.5387648,4.79590261 L45.6391035,4.79590261 L45.6391035,6.49455134 C46.7397592,5.18795422 48.1250674,4.53429331 49.7966093,4.53429331 C50.5327519,4.53429331 51.2056385,4.65603947 51.8160596,4.8988071 C52.4256901,5.14229941 52.8866688,5.45246223 53.1997864,5.83002025 C53.5121133,6.20830294 53.7303468,6.63658852 53.8529054,7.11560167 C53.9754641,7.59533949 54.0371387,8.28161097 54.0371387,9.17514078 L54.0371387,16.364686 Z" id="Fill-24" fill="#0A85C0"></path>
                                <path d="M63.2074517,4.79561274 L63.2074517,7.23560859 L60.92707,7.23560859 L60.92707,11.8981964 C60.92707,12.8424538 60.948419,13.3924856 60.9919075,13.5490163 C61.0353961,13.7048224 61.1342337,13.8338154 61.2892111,13.9352705 C61.4433978,14.0367256 61.6315846,14.0881779 61.8537716,14.0881779 C62.162145,14.0881779 62.6096818,13.9903461 63.1955912,13.793958 L63.4810343,16.1687327 C62.7045659,16.4738228 61.8253064,16.6260055 60.8440464,16.6260055 C60.242323,16.6260055 59.6991114,16.5339712 59.2167838,16.3484532 C58.7328748,16.1636599 58.3786407,15.923791 58.1532909,15.6295712 C57.9271504,15.3353513 57.7713823,14.9375022 57.6844052,14.4367487 C57.6124514,14.0809311 57.5768699,13.3613243 57.5768699,12.2793779 L57.5768699,7.23560859 L56.0444914,7.23560859 L56.0444914,4.79561274 L57.5768699,4.79561274 L57.5768699,2.49692939 L60.92707,2.49692939 L60.92707,4.79561274 L63.2074517,4.79561274 Z" id="Fill-25" fill="#0A85C0"></path>
                                <path d="M73.0194185,9.58886031 C72.9956975,8.70257729 72.745836,8.02935004 72.2714154,7.5677292 C71.7962041,7.10683304 71.2182017,6.87638497 70.5366174,6.87638497 C69.8083818,6.87638497 69.2066583,7.11987728 68.731447,7.60613722 C68.2562357,8.09312183 68.0221882,8.75402953 68.0300952,9.58886031 L73.0194185,9.58886031 Z M72.8296503,12.6825171 L76.1553387,13.1948655 C75.7275694,14.3130459 75.0523108,15.1645443 74.1303534,15.7493607 C73.2076054,16.334177 72.0531819,16.6262229 70.6670831,16.6262229 C68.4736785,16.6262229 66.8503693,15.9689386 65.7971556,14.65437 C64.9653382,13.6014107 64.5502201,12.2723485 64.5502201,10.6671834 C64.5502201,8.74968145 65.0958038,7.24887023 66.1893433,6.16257567 C67.2820921,5.07700579 68.6642374,4.53422085 70.3349886,4.53422085 C72.2121128,4.53422085 73.6923051,5.10236957 74.7771468,6.23866701 C75.8627793,7.37568914 76.3806885,9.11709396 76.3332464,11.4621568 L67.9707927,11.4621568 C67.9945137,12.3701802 68.2641427,13.0767427 68.7788891,13.5811196 C69.2936354,14.0862212 69.9348939,14.3384097 70.7026646,14.3384097 C71.225318,14.3384097 71.6649477,14.2079674 72.0215539,13.9463581 C72.3773693,13.6847488 72.6469984,13.26371 72.8296503,12.6825171 L72.8296503,12.6825171 Z" id="Fill-26" fill="#0A85C0"></path>
                                <path d="M90.5287014,16.364686 L87.1903618,16.364686 L87.1903618,10.4607222 C87.1903618,9.21137476 87.1191987,8.40335713 86.9768725,8.0366693 C86.8345464,7.6692568 86.602871,7.38445776 86.2818464,7.1815475 C85.9616125,6.97791256 85.5749597,6.87645743 85.1242601,6.87645743 C84.545467,6.87645743 84.0267671,7.02139333 83.5673698,7.31198981 C83.1079726,7.60258629 82.7932736,7.9873911 82.6232728,8.46712892 C82.4532721,8.94614207 82.3678764,9.8317004 82.3678764,11.1252533 L82.3678764,16.364686 L79.0303275,16.364686 L79.0303275,4.79590261 L82.1298754,4.79590261 L82.1298754,6.49455134 C83.2313219,5.18795422 84.6166301,4.53429331 86.288172,4.53429331 C87.0243146,4.53429331 87.6972012,4.65603947 88.3068316,4.8988071 C88.9172528,5.14229941 89.3782315,5.45246223 89.6913491,5.83002025 C90.003676,6.20830294 90.2219094,6.63658852 90.3444681,7.11560167 C90.4670267,7.59533949 90.5287014,8.28161097 90.5287014,9.17514078 L90.5287014,16.364686 Z" id="Fill-27" fill="#0A85C0"></path>
                                <path d="M93.9139296,16.3643962 L97.2522692,16.3643962 L97.2522692,4.79561274 L93.9139296,4.79561274 L93.9139296,16.3643962 Z M93.9139296,3.22668164 L97.2522692,3.22668164 L97.2522692,0.394634181 L93.9139296,0.394634181 L93.9139296,3.22668164 Z" id="Fill-28" fill="#0A85C0"></path>
                                <polygon id="Fill-29" fill="#FFFFFF" points="100.083137 16.364686 104.63204 10.4056466 100.272905 4.79590261 104.347387 4.79590261 106.580327 7.9765209 108.932662 4.79590261 112.852167 4.79590261 108.576056 10.2752043 113.245146 16.364686 109.146152 16.364686 106.580327 12.7811459 103.990781 16.364686"></polygon>
                                <path d="M117.362721,7.0705266 L117.362721,4.83996312 L118.132073,4.83996312 L118.574075,6.37628365 L119.02003,4.83996312 L119.788592,4.83996312 L119.788592,7.0705266 L119.319706,7.0705266 L119.319706,5.29216313 L118.79389,7.0705266 L118.348725,7.0705266 L117.825281,5.29216313 L117.825281,7.0705266 L117.362721,7.0705266 Z M115.845366,7.0705266 L115.845366,5.22694197 L115.093409,5.22694197 L115.093409,4.83996312 L117.06858,4.83996312 L117.06858,5.22694197 L116.337973,5.22694197 L116.337973,7.0705266 L115.845366,7.0705266 Z" id="Fill-30" fill="#0A85C0"></path>
                            </g>
                            <text id="Moc" font-family="Noto sans, Sans serif" font-size="16" font-weight="normal" letter-spacing="0.0158804059" fill="#767676">
                                <tspan x="124.666667" y="19">Moc</tspan>
                            </text>
                        </g>
                    </g>
                </g>
            </g>
        </g>
    </g>
</svg>